<?xml version="1.0" encoding="UTF-8" standalone="no"?>
<!-- Created with Inkscape (http://www.inkscape.org/) -->

<svg
   width="210mm"
   height="297mm"
   viewBox="0 0 210 297"
   version="1.1"
   id="svg5"
   inkscape:version="1.2 (dc2aedaf03, 2022-05-15)"
   sodipodi:docname="load.svg"
   xmlns:inkscape="http://www.inkscape.org/namespaces/inkscape"
   xmlns:sodipodi="http://sodipodi.sourceforge.net/DTD/sodipodi-0.dtd"
   xmlns="http://www.w3.org/2000/svg"
   xmlns:svg="http://www.w3.org/2000/svg">
  <sodipodi:namedview
     id="namedview7"
     pagecolor="#ffffff"
     bordercolor="#000000"
     borderopacity="0.25"
     inkscape:showpageshadow="2"
     inkscape:pageopacity="0.0"
     inkscape:pagecheckerboard="0"
     inkscape:deskcolor="#d1d1d1"
     inkscape:document-units="mm"
     showgrid="false"
     inkscape:zoom="0.34565095"
     inkscape:cx="1304.7845"
     inkscape:cy="587.29767"
     inkscape:window-width="1920"
     inkscape:window-height="974"
     inkscape:window-x="-11"
     inkscape:window-y="-11"
     inkscape:window-maximized="1"
     inkscape:current-layer="layer1" />
  <defs
     id="defs2">
    <inkscape:perspective
       sodipodi:type="inkscape:persp3d"
       inkscape:vp_x="0 : 148.5 : 1"
       inkscape:vp_y="0 : 1000 : 0"
       inkscape:vp_z="210 : 148.5 : 1"
       inkscape:persp3d-origin="105 : 99 : 1"
       id="perspective67" />
  </defs>
  <g
     inkscape:label="Layer 1"
     inkscape:groupmode="layer"
     id="layer1">
    <path
       id="path135"
       style="fill:#00b3b3;fill-opacity:1;stroke-width:0.900319"
       d="M 105.29907,43.405184 A 104.83944,104.83944 0 0 0 1.5003371,133.56568 H 30.240217 A 77.490022,77.490022 0 0 1 94.444253,72.50904 v 32.91623 a 45.12424,45.12424 0 0 0 -32.69286,43.33508 45.12424,45.12424 0 0 0 32.69286,43.3349 v 33.48939 A 77.490022,77.490022 0 0 1 29.019863,156.58889 H 0.81982484 A 104.83944,104.83944 0 0 0 105.29907,253.08307 104.83944,104.83944 0 0 0 209.79941,156.58889 h -26.61394 a 77.490022,77.490022 0 0 1 -63.87695,68.70037 v -33.16941 a 45.12424,45.12424 0 0 0 32.69111,-43.3595 45.12424,45.12424 0 0 0 -32.69111,-43.33862 V 72.797427 a 77.490022,77.490022 0 0 1 62.71641,60.768253 h 27.07286 A 104.83944,104.83944 0 0 0 105.29907,43.405184 Z" />
  </g>
</svg>
